<svg width="512" height="512" viewBox="0 0 512 512" fill="none" xmlns="http://www.w3.org/2000/svg">
<path d="M405.336 149.333C399.678 149.333 394.252 151.581 390.251 155.581C386.25 159.582 384.003 165.008 384.003 170.666V409.408C383.391 420.196 378.541 430.305 370.509 437.533C362.478 444.762 351.915 448.524 341.123 448H170.883C160.09 448.524 149.528 444.762 141.496 437.533C133.465 430.305 128.615 420.196 128.003 409.408V170.666C128.003 165.008 125.755 159.582 121.754 155.581C117.753 151.581 112.327 149.333 106.669 149.333C101.011 149.333 95.5851 151.581 91.5843 155.581C87.5836 159.582 85.3359 165.008 85.3359 170.666V409.408C85.9449 431.514 95.2897 452.478 111.324 467.708C127.358 482.939 148.774 491.194 170.883 490.666H341.123C363.231 491.194 384.647 482.939 400.681 467.708C416.716 452.478 426.06 431.514 426.669 409.408V170.666C426.669 165.008 424.422 159.582 420.421 155.581C416.42 151.581 410.994 149.333 405.336 149.333Z" fill="white"/>
<path d="M426.667 85.333H341.333V42.6663C341.333 37.0084 339.086 31.5822 335.085 27.5814C331.084 23.5806 325.658 21.333 320 21.333H192C186.342 21.333 180.916 23.5806 176.915 27.5814C172.914 31.5822 170.667 37.0084 170.667 42.6663V85.333H85.3333C79.6754 85.333 74.2492 87.5806 70.2484 91.5814C66.2476 95.5822 64 101.008 64 106.666C64 112.324 66.2476 117.751 70.2484 121.751C74.2492 125.752 79.6754 128 85.3333 128H426.667C432.325 128 437.751 125.752 441.752 121.751C445.752 117.751 448 112.324 448 106.666C448 101.008 445.752 95.5822 441.752 91.5814C437.751 87.5806 432.325 85.333 426.667 85.333ZM213.333 85.333V63.9997H298.667V85.333H213.333Z" fill="white"/>
<path d="M234.667 362.667V213.333C234.667 207.675 232.419 202.249 228.418 198.248C224.417 194.248 218.991 192 213.333 192C207.675 192 202.249 194.248 198.248 198.248C194.248 202.249 192 207.675 192 213.333V362.667C192 368.325 194.248 373.751 198.248 377.752C202.249 381.752 207.675 384 213.333 384C218.991 384 224.417 381.752 228.418 377.752C232.419 373.751 234.667 368.325 234.667 362.667Z" fill="white"/>
<path d="M320.003 362.667V213.333C320.003 207.675 317.755 202.249 313.754 198.248C309.753 194.248 304.327 192 298.669 192C293.011 192 287.585 194.248 283.584 198.248C279.584 202.249 277.336 207.675 277.336 213.333V362.667C277.336 368.325 279.584 373.751 283.584 377.752C287.585 381.752 293.011 384 298.669 384C304.327 384 309.753 381.752 313.754 377.752C317.755 373.751 320.003 368.325 320.003 362.667Z" fill="white"/>
</svg>
