<svg width="64" height="64" viewBox="0 0 64 64" fill="none" xmlns="http://www.w3.org/2000/svg">
<path fill-rule="evenodd" clip-rule="evenodd" d="M62 22C62 19.791 60.21 18 58 18H6C3.79 18 2 19.791 2 22V58C2 60.209 3.79 62 6 62H58C60.21 62 62 60.209 62 58V22ZM43.0601 41.696C43.6401 41.331 44 40.69 44 40C44 39.31 43.6401 38.669 43.0601 38.304L27.0601 28.304C26.4401 27.919 25.67 27.898 25.03 28.251C24.39 28.603 24 29.273 24 30V50C24 50.727 24.39 51.397 25.03 51.749C25.67 52.102 26.4401 52.081 27.0601 51.696L43.0601 41.696Z" fill="#ACACAC"/>
<path fill-rule="evenodd" clip-rule="evenodd" d="M12 14H52C53.104 14 54 13.104 54 12C54 10.896 53.104 10 52 10H12C10.896 10 10 10.896 10 12C10 13.104 10.896 14 12 14Z" fill="#ACACAC"/>
<path fill-rule="evenodd" clip-rule="evenodd" d="M17.9999 6H45.9999C47.1038 6 47.9998 5.104 47.9998 4C47.9998 2.896 47.1038 2 45.9999 2H17.9999C16.896 2 16 2.896 16 4C16 5.104 16.896 6 17.9999 6Z" fill="#ACACAC"/>
</svg>
