<svg width="494" height="512" viewBox="0 0 494 512" fill="none" xmlns="http://www.w3.org/2000/svg">
<path d="M449 145H45C20.187 145 0 165.187 0 190V370C0 394.813 20.187 415 45 415H449C473.813 415 494 394.813 494 370V190C494 165.187 473.813 145 449 145ZM118.741 303.338C114.906 303.338 108.354 303.365 102.221 303.396V337.993C102.221 346.277 95.505 352.993 87.221 352.993C78.937 352.993 72.221 346.277 72.221 337.993L72 224.048C71.987 220.062 73.562 216.234 76.376 213.41C79.19 210.586 83.014 209 87 209H118.741C145.097 209 166.54 230.16 166.54 256.169C166.54 282.178 145.097 303.338 118.741 303.338ZM247.509 349.376C238.575 349.532 216.228 349.617 215.281 349.621C215.262 349.621 215.243 349.621 215.224 349.621C211.266 349.621 207.467 348.057 204.657 345.267C201.833 342.464 200.239 338.654 200.224 334.675C200.223 334.275 200 224.029 200 224.029C199.993 220.046 201.569 216.223 204.383 213.404C207.197 210.585 211.017 209 215 209H246.33C282.022 209 306.002 237.256 306.002 279.311C306.002 319.317 281.402 348.784 247.509 349.376ZM401.22 263.35C409.504 263.35 416.22 270.066 416.22 278.35C416.22 286.634 409.504 293.35 401.22 293.35H374V336C374 344.284 367.284 351 359 351C350.716 351 344 344.284 344 336V222.842C344 214.558 350.716 207.842 359 207.842H404.863C413.147 207.842 419.863 214.558 419.863 222.842C419.863 231.126 413.147 237.842 404.863 237.842H374V263.35H401.22Z" fill="#ACACAC"/>
<path d="M246.326 239H230.023C230.046 252.54 230.128 306.514 230.17 319.543C236.412 319.503 243.096 319.448 246.981 319.38C267.026 319.03 275.999 299.003 275.999 279.311C275.998 269.854 273.859 239 246.326 239Z" fill="#ACACAC"/>
<path d="M118.743 239H102.047C102.065 245.675 102.082 252.776 102.082 256.169C102.082 260.134 102.11 267.011 102.142 273.397C108.298 273.366 114.874 273.338 118.744 273.338C128.392 273.338 136.543 265.476 136.543 256.169C136.543 246.862 128.391 239 118.743 239Z" fill="#ACACAC"/>
<path d="M433.455 115C429.978 105.47 424.578 96.662 417.428 89.12L355.123 23.399C341.025 8.529 321.187 0 300.695 0H101C76.187 0 56 20.187 56 45V115H433.455Z" fill="#ACACAC"/>
<path d="M56 445V467C56 491.813 76.187 512 101 512H393C417.813 512 438 491.813 438 467V445H56Z" fill="#ACACAC"/>
</svg>
