<svg width="656" height="656" viewBox="0 0 656 656" fill="none" xmlns="http://www.w3.org/2000/svg">
<g clip-path="url(#clip0_4356_4803)">
<path d="M405.115 110.182L44.175 471.148C42.3591 472.969 41.0479 475.269 40.4235 477.741L0.416712 638.319C-0.780006 643.153 0.640447 648.294 4.16816 651.821C6.83736 654.491 10.4743 655.968 14.1946 655.968C15.3341 655.968 16.4996 655.828 17.6338 655.542L178.213 615.53C180.715 614.905 182.989 613.599 184.805 611.783L545.777 250.843L405.115 110.182Z" fill="#2987EC"/>
<path d="M635.2 60.965L595.022 20.7865C568.169 -6.06683 521.367 -6.04082 494.544 20.7865L445.328 70.0028L585.984 210.659L635.2 161.442C648.614 148.034 656.003 130.187 656.003 111.206C656.003 92.2253 648.614 74.3786 635.2 60.965Z" fill="#2987EC"/>
</g>
<defs>
<clipPath id="clip0_4356_4803">
<rect width="656" height="656" fill="white"/>
</clipPath>
</defs>
</svg>
