<svg fill="none" height="512" viewBox="0 0 24 24" width="512" xmlns="http://www.w3.org/2000/svg"><path clip-rule="evenodd" d="m9.77778 3h1.11112c3.1455 0 5.7822 2.20566 6.4837 5.17276.1196.50599.183 1.03412.183 1.57724 0 3.7279-2.9848 6.75-6.6667 6.75h-4.06511-2.60157c-1.2273 0-2.22222-1.0074-2.22222-2.25v-3.375c0-4.34924 3.48223-7.875 7.77778-7.875zm-1.02778 5c0-.69036.55964-1.25 1.25-1.25.6904 0 1.25.55964 1.25 1.25s-.5596 1.25-1.25 1.25c-.41421 0-.75.33579-.75.75 0 .4142.33579.75.75.75 1.5188 0 2.75-1.23122 2.75-2.75s-1.2312-2.75-2.75-2.75c-1.51878 0-2.75 1.23122-2.75 2.75 0 .41421.33579.75.75.75s.75-.33579.75-.75zm2.25 5c0 .5523-.4477 1-1 1-.55228 0-1-.4477-1-1s.44772-1 1-1c.5523 0 1 .4477 1 1zm2.1111 8c-2.3115 0-4.34812-1.1911-5.54407-3h3.32187c4.5278 0 8.1667-3.7113 8.1667-8.25002 0-.18808-.0063-.37486-.0186-.5601 1.8046 1.44212 2.9629 3.67662 2.9629 6.18512v3.375c0 1.2426-.9949 2.25-2.2222 2.25z" fill="rgb(0,0,0)" fill-rule="evenodd"/></svg>