<svg width="98" height="98" viewBox="0 0 98 98" fill="none" xmlns="http://www.w3.org/2000/svg">
<g clip-path="url(#clip0_4345_4787)">
<path d="M80.9394 30.1233L84.7818 26.281C86.2749 24.7879 86.2749 22.3669 84.7818 20.8745C83.2886 19.3814 80.8684 19.3814 79.3753 20.8745L75.5329 24.7168C69.0864 19.3455 61.253 16.1006 52.8969 15.3409V7.64653H56.5927C58.7041 7.64653 60.4156 5.93434 60.4156 3.82289C60.4156 1.71144 58.7041 0 56.5927 0H41.5546C39.4431 0 37.7317 1.71144 37.7317 3.82289C37.7317 5.93434 39.4431 7.64653 41.5546 7.64653H45.2504V15.3409C24.3333 17.243 7.65625 34.815 7.65625 56.5822C7.65625 79.4732 26.18 98 49.074 98C71.9643 98 90.491 79.4762 90.491 56.5822C90.491 46.8041 87.1235 37.544 80.9394 30.1233ZM49.0733 90.3535C30.4523 90.3535 15.302 75.204 15.302 56.5822C15.302 37.9612 30.4523 22.8117 49.0733 22.8117C67.695 22.8117 82.8445 37.9612 82.8445 56.5822C82.8445 75.204 67.695 90.3535 49.0733 90.3535ZM66.7911 38.8652C68.2842 40.3583 68.2842 42.7793 66.7911 44.2717L51.7769 59.2858C50.2838 60.779 47.8628 60.779 46.3704 59.2858C44.8773 57.7927 44.8773 55.3717 46.3704 53.8794L61.3838 38.8652C62.877 37.3721 65.2979 37.3721 66.7911 38.8652Z" fill="#ACACAC"/>
</g>
<defs>
<clipPath id="clip0_4345_4787">
<rect width="98" height="98" fill="white"/>
</clipPath>
</defs>
</svg>
