<?xml version="1.0" encoding="UTF-8"?>
<!-- Generator: Adobe Illustrator 24.3.0, SVG Export Plug-In . SVG Version: 6.00 Build 0)  -->
<svg xmlns="http://www.w3.org/2000/svg" xmlns:xlink="http://www.w3.org/1999/xlink" version="1.1" id="Capa_1" x="0px" y="0px" viewBox="0 0 512 512" style="enable-background:new 0 0 512 512;" xml:space="preserve" width="512" height="512">
<g>
	<g id="object_3_">
		<g>
			<path d="M416.78,0H95.22C42.657,0.061,0.061,42.657,0,95.22v321.56c0.061,52.563,42.657,95.159,95.22,95.22h321.56     c52.563-0.061,95.159-42.657,95.22-95.22V95.22C511.939,42.657,469.343,0.061,416.78,0z M476.655,95.22v30.871h-89.539     l-66.966-90.746h96.631C449.833,35.382,476.618,62.167,476.655,95.22z M276.222,35.345l66.966,90.746H235.778l-66.966-90.746     H276.222z M35.345,95.22c0.037-33.052,26.822-59.837,59.875-59.875h29.665l66.966,90.746H35.345V95.22z M416.78,476.655H95.22     c-33.052-0.037-59.837-26.822-59.875-59.875V161.437h441.31V416.78C476.617,449.832,449.832,476.617,416.78,476.655z"/>
		</g>
		<g>
			<path d="M350.289,303.74l-139.815-80.722c-8.453-4.88-19.261-1.984-24.141,6.469c-1.551,2.687-2.368,5.734-2.368,8.837v161.445     c0,9.76,7.912,17.673,17.672,17.673c3.102,0,6.15-0.816,8.837-2.368l139.815-80.723c8.453-4.88,11.349-15.688,6.469-24.141     C355.206,307.522,352.975,305.291,350.289,303.74L350.289,303.74z M219.31,369.159V268.933l86.798,50.112L219.31,369.159z"/>
		</g>
	</g>
</g>















</svg>
