<svg width="17" height="17" viewBox="0 0 17 17" fill="none" xmlns="http://www.w3.org/2000/svg">
<g clip-path="url(#clip0_137_8660)">
<path d="M8.50212 0H8.49788C3.81119 0 0 3.81225 0 8.5C0 10.3594 0.59925 12.0828 1.61819 13.4821L0.558875 16.6398L3.82606 15.5954C5.17013 16.4858 6.77344 17 8.50212 17C13.1888 17 17 13.1867 17 8.5C17 3.81331 13.1888 0 8.50212 0ZM13.4481 12.0031C13.243 12.5821 12.4291 13.0624 11.7799 13.2026C11.3358 13.2972 10.7557 13.3726 8.80281 12.563C6.30487 11.5281 4.69625 8.98981 4.57088 8.82512C4.45081 8.66044 3.5615 7.48106 3.5615 6.26131C3.5615 5.04156 4.18094 4.44763 4.43063 4.19263C4.63569 3.98331 4.97462 3.88769 5.29975 3.88769C5.40494 3.88769 5.4995 3.893 5.5845 3.89725C5.83419 3.90787 5.95956 3.92275 6.12425 4.31694C6.32931 4.811 6.82869 6.03075 6.88819 6.15613C6.94875 6.2815 7.00931 6.4515 6.92431 6.61619C6.84463 6.78619 6.7745 6.86162 6.64912 7.00612C6.52375 7.15062 6.40475 7.26113 6.27937 7.41625C6.16462 7.55119 6.035 7.69569 6.1795 7.94538C6.324 8.18975 6.82337 9.00469 7.55862 9.65919C8.50744 10.5039 9.27669 10.7738 9.55187 10.8885C9.75694 10.9735 10.0013 10.9533 10.1511 10.7939C10.3413 10.5889 10.5761 10.2489 10.8152 9.91419C10.9852 9.67406 11.1998 9.64431 11.4251 9.72931C11.6546 9.809 12.869 10.4093 13.1187 10.5336C13.3684 10.659 13.5331 10.7185 13.5936 10.8237C13.6531 10.9289 13.6531 11.4229 13.4481 12.0031Z" fill="black"/>
</g>
<defs>
<clipPath id="clip0_137_8660">
<rect width="17" height="17" fill="white"/>
</clipPath>
</defs>
</svg>
