<svg width="8" height="13" viewBox="0 0 8 13" fill="none" xmlns="http://www.w3.org/2000/svg">
<path d="M0.922117 10.793L0.915992 10.7999L0.910399 10.8073C0.672709 11.1214 0.699466 11.5674 0.98892 11.8512C1.30471 12.1607 1.81469 12.1607 2.13048 11.8512L7.01108 7.06652L7.01763 7.0601L7.02369 7.05322L7.07788 6.99168L7.08401 6.98472L7.0896 6.97733C7.32729 6.66329 7.30053 6.21726 7.01108 5.9335L2.13048 1.14886L2.12395 1.14246L2.11697 1.13655L2.0542 1.08343L2.04718 1.07749L2.03975 1.07209C1.72378 0.842249 1.27645 0.866991 0.988919 1.14886L0.982371 1.15528L0.97631 1.16217L0.922117 1.22371L0.915992 1.23066L0.910398 1.23805C0.672709 1.5521 0.699466 1.99812 0.988919 2.28189L0.988923 2.28189L5.29182 6.50001L0.988923 10.7181L0.982373 10.7246L0.97631 10.7314L0.922117 10.793Z" fill="white" stroke="white" stroke-width="0.5"/>
</svg>
