<svg width="23" height="23" viewBox="0 0 23 23" fill="none" xmlns="http://www.w3.org/2000/svg">
<g clip-path="url(#clip0_1294_679)">
<path d="M9.10449 14.9347V8.06533C9.10464 7.97938 9.12789 7.89506 9.17183 7.82119C9.21576 7.74732 9.27876 7.68662 9.35421 7.64547C9.42966 7.60431 9.51479 7.58421 9.60069 7.58726C9.68658 7.59032 9.77007 7.61642 9.84241 7.66283L15.1861 11.0965C15.2537 11.1399 15.3094 11.1996 15.348 11.2701C15.3865 11.3406 15.4067 11.4196 15.4067 11.5C15.4067 11.5804 15.3865 11.6594 15.348 11.7299C15.3094 11.8004 15.2537 11.8601 15.1861 11.9035L9.84241 15.3381C9.77007 15.3845 9.68658 15.4106 9.60069 15.4137C9.51479 15.4167 9.42966 15.3966 9.35421 15.3555C9.27876 15.3143 9.21576 15.2536 9.17183 15.1798C9.12789 15.1059 9.10464 15.0216 9.10449 14.9356V14.9347Z" fill="#797979"/>
<path d="M0.958008 11.5C0.958008 5.67812 5.6778 0.958328 11.4997 0.958328C17.3215 0.958328 22.0413 5.67812 22.0413 11.5C22.0413 17.3219 17.3215 22.0417 11.4997 22.0417C5.6778 22.0417 0.958008 17.3219 0.958008 11.5ZM11.4997 2.39583C9.0851 2.39583 6.76942 3.35501 5.06206 5.06238C3.35469 6.76974 2.39551 9.08542 2.39551 11.5C2.39551 13.9146 3.35469 16.2302 5.06206 17.9376C6.76942 19.645 9.0851 20.6042 11.4997 20.6042C13.9142 20.6042 16.2299 19.645 17.9373 17.9376C19.6447 16.2302 20.6038 13.9146 20.6038 11.5C20.6038 9.08542 19.6447 6.76974 17.9373 5.06238C16.2299 3.35501 13.9142 2.39583 11.4997 2.39583Z" fill="#797979"/>
</g>
<defs>
<clipPath id="clip0_1294_679">
<rect width="23" height="23" fill="white"/>
</clipPath>
</defs>
</svg>
