<svg width="45" height="45" viewBox="0 0 45 45" fill="none" xmlns="http://www.w3.org/2000/svg">
<rect x="0.625977" y="0.71875" width="43.9961" height="43.9961" rx="9" fill="#EB2125"/>
<path d="M29.771 24.3809V27.4898C29.771 28.619 29.1063 29.6267 28.0771 30.0984C26.8264 30.6702 24.9325 31.292 22.624 31.292C20.3155 31.292 18.4216 30.6702 17.1637 30.0984C16.1417 29.6267 15.4771 28.619 15.4771 27.4898V24.3809L20.5585 26.7036C21.2089 27.0038 21.9093 27.1539 22.624 27.1539C23.3387 27.1539 24.0391 27.0038 24.6895 26.7036L29.771 24.3809Z" fill="white"/>
<path d="M32.6301 23.0723V27.7178C32.6301 28.1109 32.3085 28.4325 31.9154 28.4325C31.5223 28.4325 31.2007 28.1109 31.2007 27.7178V23.7298L32.6301 23.0723Z" fill="white"/>
<path d="M21.1504 25.4065C21.6185 25.6202 22.1209 25.7274 22.6241 25.7274C23.1272 25.7274 23.6289 25.621 24.0978 25.4065L33.2252 21.2342C33.7397 20.999 34.0592 20.5009 34.0592 19.9341C34.0592 19.3674 33.7397 18.8685 33.2252 18.6334L24.0978 14.4617C23.1608 14.0336 22.0881 14.0336 21.1511 14.4617L12.023 18.6327C11.5084 18.8685 11.189 19.3667 11.189 19.9334C11.189 20.5002 11.5084 20.9983 12.023 21.2342L21.1504 25.4065Z" fill="white"/>
</svg>
