<svg width="21" height="21" viewBox="0 0 21 21" fill="none" xmlns="http://www.w3.org/2000/svg">
<path d="M10.0625 20.125C8.07233 20.125 6.12685 19.5348 4.47208 18.4292C2.81731 17.3235 1.52757 15.7519 0.765967 13.9133C0.00435991 12.0746 -0.194911 10.0513 0.193353 8.09941C0.581616 6.14747 1.53998 4.35451 2.94724 2.94724C4.35451 1.53998 6.14747 0.581616 8.09941 0.193353C10.0513 -0.194911 12.0746 0.00435991 13.9133 0.765967C15.7519 1.52757 17.3235 2.81731 18.4292 4.47208C19.5348 6.12685 20.125 8.07233 20.125 10.0625C20.125 12.7312 19.0649 15.2907 17.1778 17.1778C15.2907 19.0649 12.7312 20.125 10.0625 20.125ZM10.0625 1.4375C8.35664 1.4375 6.68909 1.94335 5.27071 2.89108C3.85234 3.83881 2.74685 5.18585 2.09404 6.76186C1.44124 8.33787 1.27043 10.0721 1.60323 11.7452C1.93603 13.4182 2.75748 14.9551 3.96371 16.1613C5.16994 17.3675 6.70676 18.189 8.37985 18.5218C10.0529 18.8546 11.7871 18.6838 13.3631 18.031C14.9392 17.3782 16.2862 16.2727 17.2339 14.8543C18.1817 13.4359 18.6875 11.7684 18.6875 10.0625C18.6875 7.77501 17.7788 5.58121 16.1613 3.96371C14.5438 2.34621 12.35 1.4375 10.0625 1.4375Z" fill="#2D79BC"/>
<path d="M13.3616 14.375L9.34375 10.3572V3.59375H10.7812V9.76062L14.375 13.3616L13.3616 14.375Z" fill="#2D79BC"/>
</svg>
