<svg width="21" height="20" viewBox="0 0 21 20" fill="none" xmlns="http://www.w3.org/2000/svg">
<path d="M7.30996 6.49694L9.79971 1.48294C9.87219 1.33784 9.98365 1.21579 10.1216 1.13049C10.2596 1.04518 10.4186 1 10.5808 1C10.743 1 10.9019 1.04518 11.0399 1.13049C11.1779 1.21579 11.2893 1.33784 11.3618 1.48294L13.8515 6.49694L19.4175 7.30578C19.5781 7.32804 19.7291 7.39499 19.8535 7.49899C19.9778 7.60299 20.0704 7.73984 20.1206 7.89393C20.1709 8.04802 20.1768 8.21314 20.1377 8.37044C20.0986 8.52774 20.0161 8.67088 19.8996 8.78353L15.8727 12.6839L16.8233 18.1944C16.945 18.9016 16.1975 19.4402 15.5583 19.1067L10.5808 16.5039L5.60221 19.1067C4.96396 19.4412 4.21646 18.9016 4.33817 18.1934L5.28884 12.683L1.26192 8.78257C1.14595 8.66985 1.06393 8.52685 1.02518 8.36983C0.986428 8.21281 0.992506 8.04807 1.04272 7.89433C1.09293 7.7406 1.18527 7.60403 1.30923 7.50016C1.43319 7.39629 1.58381 7.32927 1.74396 7.30674L7.30996 6.49694Z" stroke="#2D79BC" stroke-width="1.4375" stroke-linecap="round" stroke-linejoin="round"/>
</svg>
