<svg width="17" height="21" viewBox="0 0 17 21" fill="none" xmlns="http://www.w3.org/2000/svg">
<path fill-rule="evenodd" clip-rule="evenodd" d="M6.41707 0H10.3558C11.6668 0 12.7229 -1.42803e-08 13.5538 0.112125C14.4163 0.227125 15.1427 0.476292 15.7196 1.05225C16.2965 1.62917 16.5438 2.35558 16.6607 3.21808C16.7719 4.04896 16.7719 5.106 16.7719 6.41604V14.1881C16.7719 15.4982 16.7719 16.5552 16.6607 17.3861C16.5447 18.2486 16.2965 18.975 15.7196 19.5519C15.1427 20.1288 14.4163 20.3761 13.5538 20.493C12.7229 20.6042 11.6659 20.6042 10.3558 20.6042H6.41707C5.10703 20.6042 4.04999 20.6042 3.21912 20.493C2.35662 20.3761 1.6302 20.1288 1.05328 19.5519C0.477324 18.975 0.229116 18.2486 0.113157 17.3861C0.0745575 17.0861 0.0483408 16.7846 0.0345741 16.4824C-0.00396284 16.3608 -0.00925707 16.2311 0.0192407 16.1067C0.00344298 15.4673 -0.00262722 14.8277 0.00103234 14.1881V6.41604C0.00103234 5.106 0.00103244 4.04896 0.113157 3.21808C0.228157 2.35558 0.477324 1.62917 1.05424 1.05225C1.6302 0.475333 2.35757 0.228083 3.22007 0.112125C4.04999 -1.42803e-08 5.10703 0 6.41707 0ZM1.46441 16.2917C1.47878 16.63 1.50178 16.928 1.53724 17.1944C1.63212 17.8978 1.80557 18.2697 2.07007 18.5351C2.33553 18.8006 2.70832 18.9731 3.41174 19.068C4.13528 19.1647 5.09457 19.1667 6.46978 19.1667H10.3031C11.6793 19.1667 12.6386 19.1647 13.3621 19.068C14.0655 18.9731 14.4374 18.7996 14.7038 18.5351C14.8916 18.3473 15.0325 18.1048 15.1331 17.7292H4.55312C4.36249 17.7292 4.17967 17.6534 4.04488 17.5186C3.91009 17.3839 3.83437 17.201 3.83437 17.0104C3.83437 16.8198 3.91009 16.637 4.04488 16.5022C4.17967 16.3674 4.36249 16.2917 4.55312 16.2917H15.3085C15.3267 15.8786 15.3324 15.4052 15.3334 14.8542H4.45537C3.51812 14.8542 3.19037 14.8599 2.93928 14.928C2.60116 15.0183 2.29011 15.1896 2.03298 15.427C1.77585 15.6644 1.58038 15.9608 1.46345 16.2907M15.3334 13.4157H4.3442C3.56028 13.4157 3.02553 13.4157 2.56649 13.5384C2.16282 13.6465 1.7811 13.8242 1.43853 14.0635V6.46875C1.43853 5.09354 1.44045 4.13329 1.53724 3.40975C1.63212 2.70633 1.80557 2.3345 2.07007 2.06904C2.33553 1.80358 2.70832 1.63108 3.41174 1.53621C4.13528 1.43942 5.09457 1.4375 6.46978 1.4375H10.3031C11.6793 1.4375 12.6386 1.43942 13.3621 1.53621C14.0655 1.63108 14.4374 1.80454 14.7038 2.06904C14.9683 2.3345 15.1408 2.70633 15.2357 3.41071C15.3334 4.13329 15.3344 5.09354 15.3344 6.46875L15.3334 13.4157ZM3.83437 5.51042C3.83437 5.31979 3.91009 5.13698 4.04488 5.00218C4.17967 4.86739 4.36249 4.79167 4.55312 4.79167H12.2198C12.4104 4.79167 12.5932 4.86739 12.728 5.00218C12.8628 5.13698 12.9385 5.31979 12.9385 5.51042C12.9385 5.70104 12.8628 5.88386 12.728 6.01865C12.5932 6.15344 12.4104 6.22917 12.2198 6.22917H4.55312C4.36249 6.22917 4.17967 6.15344 4.04488 6.01865C3.91009 5.88386 3.83437 5.70104 3.83437 5.51042ZM3.83437 8.86458C3.83437 8.67396 3.91009 8.49114 4.04488 8.35635C4.17967 8.22156 4.36249 8.14583 4.55312 8.14583H9.34478C9.53541 8.14583 9.71822 8.22156 9.85302 8.35635C9.98781 8.49114 10.0635 8.67396 10.0635 8.86458C10.0635 9.05521 9.98781 9.23802 9.85302 9.37282C9.71822 9.50761 9.53541 9.58333 9.34478 9.58333H4.55312C4.36249 9.58333 4.17967 9.50761 4.04488 9.37282C3.91009 9.23802 3.83437 9.05521 3.83437 8.86458Z" fill="#2D79BC"/>
</svg>
