<svg width="50" height="50" viewBox="0 0 50 50" fill="none" xmlns="http://www.w3.org/2000/svg">
<path d="M16.9382 16.9382H33.6048M16.9382 25.2715H29.4382M25.3361 36.8986L16.9382 41.9382V35.6882H12.7715C11.1139 35.6882 9.52417 35.0297 8.35207 33.8576C7.17996 32.6855 6.52148 31.0958 6.52148 29.4382V12.7715C6.52148 11.1139 7.17996 9.52417 8.35207 8.35207C9.52417 7.17996 11.1139 6.52148 12.7715 6.52148H37.7715C39.4291 6.52148 41.0188 7.17996 42.1909 8.35207C43.363 9.52417 44.0215 11.1139 44.0215 12.7715V23.1882" stroke="#0F75BC" stroke-width="4.16667" stroke-linecap="round" stroke-linejoin="round"/>
<path d="M38.923 44.0667C37.8179 44.0667 36.7581 43.6277 35.9767 42.8463C35.1953 42.0649 34.7563 41.0051 34.7563 39.9001C34.7563 38.795 35.1953 37.7352 35.9767 36.9538C36.7581 36.1724 37.8179 35.7334 38.923 35.7334M38.923 44.0667C40.028 44.0667 41.0879 43.6277 41.8693 42.8463C42.6507 42.0649 43.0896 41.0051 43.0896 39.9001C43.0896 38.795 42.6507 37.7352 41.8693 36.9538C41.0879 36.1724 40.028 35.7334 38.923 35.7334M38.923 44.0667V47.1917M38.923 35.7334V32.6084M45.2376 36.2542L42.5313 37.8167M35.3167 41.9834L32.6084 43.5459M32.6084 36.2542L35.3167 37.8167M42.5313 41.9834L45.2396 43.5459" stroke="#EB2125" stroke-width="4.16667" stroke-linecap="round" stroke-linejoin="round"/>
</svg>
