<svg width="50" height="50" viewBox="0 0 50 50" fill="none" xmlns="http://www.w3.org/2000/svg">
<path d="M35.417 4.1665V8.33317M25.0003 4.1665V8.33317M14.5837 4.1665V8.33317M28.1253 33.3332H35.417M28.1253 18.7498H35.417M7.29199 20.8332C7.29199 13.9582 7.29199 10.5207 9.42741 8.38525C11.5628 6.24984 15.0003 6.24984 21.8753 6.24984H28.1253C35.0003 6.24984 38.4378 6.24984 40.5732 8.38525C42.7087 10.5207 42.7087 13.9582 42.7087 20.8332V31.2498C42.7087 38.1248 42.7087 41.5623 40.5732 43.6978C38.4378 45.8332 35.0003 45.8332 28.1253 45.8332H21.8753C15.0003 45.8332 11.5628 45.8332 9.42741 43.6978C7.29199 41.5623 7.29199 38.1248 7.29199 31.2498V20.8332Z" stroke="#0F75BC" stroke-width="3.125" stroke-linecap="round" stroke-linejoin="round"/>
<path d="M14.583 20.8327C14.583 20.8327 15.6247 20.8327 16.6663 22.916C16.6663 22.916 19.9747 17.7077 22.9163 16.666M14.583 35.416C14.583 35.416 15.6247 35.416 16.6663 37.4993C16.6663 37.4993 19.9747 32.291 22.9163 31.2493" stroke="#EB2125" stroke-width="3.125" stroke-linecap="round" stroke-linejoin="round"/>
</svg>
