<svg width="50" height="50" viewBox="0 0 50 50" fill="none" xmlns="http://www.w3.org/2000/svg">
<path d="M45.8332 24.9998C45.8332 34.8207 45.8332 39.7311 42.7811 42.7811C39.7332 45.8332 34.8207 45.8332 24.9998 45.8332C15.179 45.8332 10.2686 45.8332 7.2165 42.7811C4.1665 39.7332 4.1665 34.8207 4.1665 24.9998C4.1665 15.179 4.1665 10.2686 7.2165 7.2165C10.2707 4.1665 15.179 4.1665 24.9998 4.1665" stroke="#0F75BC" stroke-width="3.125" stroke-linecap="round"/>
<path d="M4.1665 26.0416L7.8165 22.8479C8.73137 22.048 9.91597 21.6256 11.1305 21.6663C12.345 21.7069 13.4988 22.2074 14.3582 23.0666L23.2957 32.0041C23.9892 32.6975 24.9052 33.1241 25.8822 33.2087C26.8593 33.2933 27.8349 33.0305 28.6373 32.4666L29.2603 32.0291C30.4177 31.2162 31.8168 30.8199 33.2286 30.905C34.6405 30.9902 35.9818 31.5517 37.0332 32.4979L43.7498 38.5416" stroke="#0F75BC" stroke-width="3.125" stroke-linecap="round"/>
<path d="M35.4165 4.1665V22.9165M35.4165 4.1665L41.6665 10.4165M35.4165 4.1665L29.1665 10.4165" stroke="#EB2125" stroke-width="3.125" stroke-linecap="round" stroke-linejoin="round"/>
</svg>
