<svg width="18" height="14" viewBox="0 0 18 14" fill="none" xmlns="http://www.w3.org/2000/svg">
<path d="M1 6.08824C0.496446 6.08824 0.0882354 6.49645 0.0882353 7C0.0882353 7.50355 0.496446 7.91176 1 7.91176L1 6.08824ZM17.1786 7.64472C17.5346 7.28865 17.5346 6.71135 17.1786 6.35529L11.3761 0.552851C11.0201 0.196785 10.4428 0.196785 10.0867 0.552851C9.73063 0.908917 9.73063 1.48621 10.0867 1.84228L15.2444 7L10.0867 12.1577C9.73063 12.5138 9.73063 13.0911 10.0867 13.4472C10.4428 13.8032 11.0201 13.8032 11.3761 13.4472L17.1786 7.64472ZM1 7.91176L16.5338 7.91177L16.5338 6.08824L1 6.08824L1 7.91176Z" fill="white"/>
</svg>
