<svg width="110" height="110" viewBox="0 0 110 110" fill="none" xmlns="http://www.w3.org/2000/svg">
<path d="M62.3696 4.32295C66.271 4.9585 67.6533 8.19994 67.2038 10.9587C66.7571 13.7011 64.4149 16.3525 60.5135 15.717L57.2324 15.1825C56.8243 15.116 56.551 14.7363 56.6175 14.3282L58.2316 4.41967C58.2981 4.01157 58.6804 3.72196 59.0885 3.78844L62.3696 4.32295ZM60.56 14.3002C63.286 14.7443 65.3199 13.2659 65.7347 10.7193C66.1495 8.17282 64.6901 6.12531 61.964 5.68122L59.6134 5.29829L58.2093 13.9173L60.56 14.3002Z" fill="white"/>
<path d="M72.3672 10.1702C72.7667 10.3293 72.9516 10.759 72.7924 11.1585L70.1664 17.7499C70.0134 18.134 69.5836 18.3189 69.1842 18.1597C68.8 18.0067 68.6152 17.577 68.7682 17.1928L71.3942 10.6015C71.5534 10.202 71.9831 10.0171 72.3672 10.1702ZM74.155 8.14071C74.1488 8.15607 74.1366 8.1868 74.1305 8.20217C73.9591 8.63237 73.4649 8.84496 73.0347 8.67356C73.0193 8.66744 73.004 8.66132 72.9425 8.63684C72.5123 8.46544 72.2997 7.97126 72.4711 7.54106C72.4772 7.52569 72.4772 7.52569 72.4956 7.4796C72.667 7.04939 73.1612 6.8368 73.5914 7.0082C73.6221 7.02044 73.6528 7.03268 73.6836 7.04493C74.1138 7.21633 74.3264 7.7105 74.155 8.14071Z" fill="white"/>
<path d="M76.4735 14.7786C75.5904 16.2546 80.4652 17.803 78.8008 20.5848C78.113 21.7344 76.6215 22.1333 74.8049 21.0463C73.7688 20.4264 73.09 19.6926 72.604 18.8621C72.5215 18.6778 72.5241 18.4481 72.6429 18.2494C72.8128 17.9655 73.2097 17.8176 73.5361 18.0129C73.6213 18.0638 73.6838 18.1205 73.7576 18.2225C74.1327 18.7553 74.5957 19.3022 75.433 19.8032C76.5259 20.4571 77.2292 20.3768 77.6113 19.7381C78.3416 18.5176 73.6508 16.6938 75.1963 14.1108C75.9606 12.8335 77.4605 12.4203 79.3056 13.5243C80.0861 13.9914 80.6967 14.5494 81.1512 15.1104C81.3699 15.3569 81.3674 15.6831 81.2401 15.896C81.0617 16.1941 80.6591 16.3194 80.3327 16.124C80.2617 16.0816 80.2134 16.0334 80.1652 15.9853C79.7959 15.5716 79.3245 15.1354 78.7001 14.7617C77.6498 14.1333 76.8132 14.2109 76.4735 14.7786Z" fill="white"/>
<path d="M85.3071 26.9333C85.5591 27.1723 85.5242 27.6178 85.3079 27.8458C85.1372 28.0258 84.9046 28.0787 84.6696 28.0382C84.0112 27.9152 83.1153 27.6582 82.1672 26.7591C80.4631 25.143 80.0784 22.5443 81.979 20.5402C83.8796 18.5361 86.495 18.7827 88.1991 20.3988C89.1471 21.2979 89.4512 22.1789 89.6089 22.8299C89.6618 23.0625 89.6213 23.2975 89.4505 23.4775C89.2343 23.7055 88.7913 23.7641 88.5393 23.5251C88.4433 23.434 88.3947 23.3651 88.3436 23.2027C88.1284 22.5884 87.9517 22.1017 87.3277 21.5099C85.9356 20.1897 84.2888 20.2918 83.071 21.5759C81.8533 22.86 81.8385 24.5099 83.2306 25.8301C83.8546 26.4219 84.35 26.5726 84.9748 26.7549C85.1397 26.7973 85.2111 26.8422 85.3071 26.9333Z" fill="white"/>
<path d="M95.165 29.0185C96.5309 31.1683 95.942 33.5412 93.7364 34.9427C91.5308 36.3441 89.1324 35.8693 87.7665 33.7196C86.3917 31.5558 86.9895 29.1969 89.1951 27.7954C91.4007 26.394 93.7902 26.8548 95.165 29.0185ZM88.9251 32.9834C89.5992 34.0443 91.0866 34.8432 92.9432 33.6635C94.7858 32.4927 94.6804 30.8157 94.0063 29.7547C93.3234 28.6799 91.8588 27.8861 90.0162 29.0569C88.1596 30.2366 88.2422 31.9085 88.9251 32.9834Z" fill="white"/>
<path d="M101.123 42.7262C101.253 43.1187 101.027 43.5419 100.634 43.6718C100.509 43.7133 100.404 43.7131 100.279 43.7024L92.8428 43.1315C92.482 43.0941 92.106 42.8527 91.9761 42.4601L91.9241 42.3031C91.7943 41.9106 91.9521 41.4925 92.2194 41.2473L97.8473 36.3539C97.9417 36.2704 98.0255 36.2079 98.1511 36.1663C98.5436 36.0364 98.9773 36.2413 99.1072 36.6339C99.2007 36.9165 99.1163 37.2406 98.9119 37.4127L93.6145 41.8309L100.502 42.2175C100.768 42.2338 101.029 42.4436 101.123 42.7262Z" fill="white"/>
<path d="M95.9326 54.3896C95.9606 54.7358 95.7222 55.0703 95.3431 55.101C95.0793 55.1224 94.849 54.9419 94.6984 54.7218C94.2276 54.0298 93.8556 53.3299 93.7395 51.8957C93.5219 49.2086 94.9929 47.4966 97.7623 47.2723C99.9878 47.0921 102.228 48.122 102.45 50.8585C102.655 53.3972 100.806 54.9408 98.6133 55.1183C98.2012 55.1517 97.8475 54.8817 97.8101 54.4201L97.3576 48.8317C95.8873 49.1166 95.0073 50.1337 95.1514 51.9141C95.2315 52.9032 95.48 53.5136 95.8426 54.0982C95.9001 54.1931 95.9232 54.2742 95.9326 54.3896ZM101.181 50.9613C101.095 49.9063 100.3 48.693 98.5775 48.7329L98.9713 53.596C100.678 53.3583 101.266 52.0164 101.181 50.9613Z" fill="white"/>
<path d="M101.924 63.0941C101.872 63.5043 101.504 63.7744 101.094 63.7223C100.667 63.6682 100.43 63.3046 100.484 62.878L100.494 62.796C100.632 61.7131 100.154 60.7521 99.3733 60.0696L94.3855 59.4364C93.9753 59.3844 93.6909 58.9982 93.743 58.588C93.7951 58.1778 94.1649 57.8913 94.575 57.9434L101.614 58.8368C102.024 58.8889 102.327 59.2608 102.275 59.671C102.223 60.0812 101.834 60.382 101.424 60.3299L100.719 60.2404C101.431 60.931 102.078 61.88 101.934 63.0121L101.924 63.0941Z" fill="white"/>
<path d="M95.7955 85.299C95.4926 85.8116 94.8215 85.9722 94.3089 85.6694L85.8076 80.6474C85.4516 80.437 85.3351 79.984 85.5454 79.628C85.7557 79.272 86.2171 79.1412 86.5731 79.3515L94.6614 84.1296L88.4736 76.0368C88.2101 75.6699 88.1699 75.1851 88.4139 74.7722C88.6578 74.3592 89.1018 74.1605 89.5503 74.2141L99.6245 75.728L91.5362 70.9499C91.1802 70.7396 91.072 70.2723 91.2823 69.9163C91.4926 69.5603 91.9457 69.4438 92.3017 69.6541L100.803 74.6761C101.316 74.9789 101.499 75.6442 101.196 76.1569L100.918 76.6268C100.691 77.0113 100.233 77.2016 99.8072 77.1421L89.8378 75.6134L95.9881 83.6071C96.2458 83.9514 96.3002 84.4446 96.0731 84.829L95.7955 85.299Z" fill="white"/>
<path d="M85.422 91.501C83.4704 93.1376 81.0407 92.8656 79.3616 90.8633C77.6825 88.861 77.838 86.421 79.7896 84.7844C81.7539 83.1371 84.1709 83.4198 85.85 85.4221C87.5291 87.4244 87.3863 89.8537 85.422 91.501ZM80.6716 85.8362C79.7085 86.6439 79.112 88.2234 80.5254 89.9089C81.9282 91.5817 83.5768 91.2568 84.54 90.4491C85.5158 89.6308 86.1102 88.0746 84.7074 86.4018C83.294 84.7164 81.6474 85.0179 80.6716 85.8362Z" fill="white"/>
<path d="M74.7724 98.3404C74.4066 98.5331 73.9744 98.3869 73.7817 98.0211C73.5813 97.6407 73.7429 97.2377 74.1233 97.0373L74.1965 96.9988C75.1623 96.49 75.6749 95.547 75.7862 94.5163L73.4428 90.0679C73.2501 89.7021 73.4032 89.2476 73.769 89.0548C74.1348 88.8621 74.5817 89.0006 74.7744 89.3664L78.0813 95.6438C78.2741 96.0097 78.1433 96.4711 77.7775 96.6638C77.4117 96.8566 76.9425 96.7112 76.7498 96.3453L76.4183 95.7161C76.2615 96.696 75.8552 97.77 74.8456 98.3019L74.7724 98.3404Z" fill="white"/>
<path d="M63.0224 95.1852C62.6885 95.2811 62.3135 95.1134 62.2085 94.7478C62.1355 94.4934 62.267 94.232 62.4531 94.0409C63.0385 93.4427 63.6513 92.9399 65.0343 92.543C67.6256 91.7993 69.5943 92.9033 70.3608 95.574C70.9767 97.7202 70.4093 100.12 67.7704 100.877C65.3222 101.58 63.4439 100.071 62.8371 97.9571C62.723 97.5596 62.9179 97.1596 63.3631 97.0318L68.7522 95.4851C68.1826 94.1 67.0118 93.438 65.295 93.9308C64.3411 94.2045 63.7918 94.5687 63.2903 95.0395C63.2086 95.1146 63.1337 95.1533 63.0224 95.1852ZM67.4191 99.6532C68.4365 99.3612 69.469 98.3422 69.0898 96.6615L64.4002 98.0075C64.9701 99.6334 66.4017 99.9452 67.4191 99.6532Z" fill="white"/>
<path d="M58.6104 95.8215C58.1001 95.8719 57.648 95.5011 57.5976 94.9909L57.5878 94.8921C57.5374 94.3819 57.9082 93.9298 58.4185 93.8794L58.5831 93.8631C59.0933 93.8127 59.5454 94.1835 59.5958 94.6937L59.6056 94.7925C59.656 95.3027 59.2852 95.7548 58.7749 95.8053L58.6104 95.8215Z" fill="white"/>
<path d="M48.8852 105.344C44.9609 104.871 43.4454 101.689 43.7801 98.9144C44.1128 96.1559 46.3431 93.4096 50.2675 93.8829L53.5679 94.281C53.9784 94.3305 54.2672 94.6985 54.2177 95.109L53.0156 105.076C52.9661 105.486 52.5962 105.792 52.1857 105.742L48.8852 105.344ZM50.2798 95.3004C47.5376 94.9697 45.5668 96.5311 45.2579 99.0927C44.949 101.654 46.492 103.639 49.2342 103.97L51.5987 104.255L52.6443 95.5856L50.2798 95.3004Z" fill="white"/>
<path d="M38.6557 99.92C38.2499 99.7776 38.0473 99.356 38.1896 98.9502L40.538 92.2549C40.6749 91.8648 41.0965 91.6621 41.5022 91.8044C41.8924 91.9413 42.0951 92.3629 41.9582 92.7531L39.6098 99.4484C39.4675 99.8542 39.0459 100.057 38.6557 99.92ZM36.9543 102.022C36.9598 102.007 36.9707 101.976 36.9762 101.96C37.1295 101.523 37.6144 101.29 38.0513 101.443C38.067 101.449 38.0826 101.454 38.145 101.476C38.582 101.629 38.815 102.114 38.6618 102.551C38.6563 102.567 38.6563 102.567 38.6399 102.614C38.4866 103.051 38.0017 103.284 37.5647 103.13C37.5335 103.119 37.5023 103.108 37.4711 103.097C37.0341 102.944 36.801 102.459 36.9543 102.022Z" fill="white"/>
<path d="M34.369 95.49C35.1898 93.9785 30.2546 92.6348 31.8015 89.7861C32.4408 88.6088 33.9143 88.148 35.7747 89.1582C36.8357 89.7343 37.5445 90.4392 38.0648 91.2486C38.1549 91.4293 38.1619 91.659 38.0514 91.8624C37.8936 92.1531 37.5032 92.3175 37.1689 92.136C37.0817 92.0887 37.0169 92.0347 36.9388 91.9358C36.5419 91.4191 36.0565 90.8921 35.1989 90.4264C34.0798 89.8187 33.3804 89.9283 33.0253 90.5823C32.3465 91.8323 37.1094 93.4587 35.673 96.104C34.9627 97.4121 33.4813 97.8874 31.5918 96.8614C30.7924 96.4274 30.1591 95.8953 29.6816 95.3537C29.4528 95.1165 29.4416 94.7905 29.56 94.5725C29.7258 94.2673 30.1228 94.1253 30.4571 94.3068C30.5298 94.3463 30.58 94.3924 30.6302 94.4385C31.0164 94.8364 31.5056 95.2526 32.1451 95.5998C33.2207 96.1839 34.0533 96.0714 34.369 95.49Z" fill="white"/>
<path d="M25.0388 83.7127C24.7771 83.4843 24.7936 83.0378 25.0002 82.801C25.1633 82.6141 25.3934 82.5515 25.63 82.5823C26.2929 82.6778 27.1987 82.8975 28.1832 83.7565C29.9528 85.3006 30.4449 87.8811 28.629 89.9623C26.8132 92.0434 24.1898 91.9055 22.4202 90.3614C21.4357 89.5024 21.0953 88.6347 20.9108 87.9908C20.8483 87.7606 20.8791 87.5241 21.0422 87.3372C21.2488 87.1004 21.689 87.0236 21.9507 87.2519C22.0504 87.3389 22.1018 87.4057 22.1596 87.5659C22.4 88.1708 22.5967 88.6497 23.2448 89.2152C24.6903 90.4765 26.3315 90.3062 27.495 88.9727C28.6585 87.6393 28.6048 85.9902 27.1593 84.7288C26.5112 84.1634 26.0101 84.0334 25.3782 83.8771C25.2116 83.8416 25.1385 83.7997 25.0388 83.7127Z" fill="white"/>
<path d="M15.1025 82.0372C13.6483 79.9461 14.1381 77.5507 16.2835 76.0588C18.4289 74.5669 20.845 74.9416 22.2991 77.0327C23.7627 79.1374 23.2634 81.5192 21.118 83.0111C18.9726 84.503 16.566 84.1419 15.1025 82.0372ZM21.1721 77.8164C20.4544 76.7844 18.9351 76.0481 17.1292 77.3039C15.3368 78.5503 15.5118 80.2215 16.2295 81.2535C16.9565 82.299 18.4528 83.0313 20.2452 81.7849C22.0511 80.529 21.8991 78.862 21.1721 77.8164Z" fill="white"/>
<path d="M8.5737 68.5897C8.4275 68.2029 8.63542 67.7707 9.02218 67.6245C9.14595 67.5777 9.25047 67.5736 9.37631 67.579L16.8296 67.8381C17.1917 67.8603 17.5775 68.0858 17.7237 68.4726L17.7821 68.6273C17.9283 69.014 17.7882 69.4383 17.5314 69.6945L12.1132 74.8193C12.0225 74.9066 11.9413 74.9726 11.8176 75.0194C11.4308 75.1656 10.989 74.979 10.8428 74.5923C10.7375 74.3138 10.8083 73.9865 11.0052 73.8059L16.113 69.1698L9.21571 69.0719C8.94856 69.0668 8.67897 68.8682 8.5737 68.5897Z" fill="white"/>
<path d="M13.278 56.724C13.2356 56.3793 13.4599 56.0351 13.8375 55.9887C14.1001 55.9564 14.3377 56.1271 14.4973 56.3408C14.9965 57.0126 15.3972 57.6965 15.5728 59.1247C15.9019 61.8004 14.5034 63.5721 11.7456 63.9112C9.52954 64.1837 7.24818 63.2478 6.91309 60.5229C6.60222 57.9949 8.38608 56.3758 10.5693 56.1073C10.9797 56.0569 11.3443 56.312 11.4009 56.7716L12.0852 62.3364C13.5424 61.9906 14.3794 60.9378 14.1614 59.1649C14.0403 58.18 13.7666 57.5805 13.38 57.0114C13.3186 56.919 13.2921 56.839 13.278 56.724ZM8.17707 60.3674C8.30626 61.418 9.15114 62.5972 10.8704 62.4858L10.275 57.6432C8.57987 57.9517 8.04788 59.3169 8.17707 60.3674Z" fill="white"/>
<path d="M6.93214 48.2748C6.96712 47.8628 7.3233 47.5776 7.73529 47.6126C8.16376 47.649 8.41593 48.0024 8.37955 48.4309L8.37256 48.5132C8.28021 49.6009 8.79792 50.5412 9.60589 51.1907L14.6157 51.6161C15.0277 51.6511 15.3279 52.0251 15.2929 52.4371C15.258 52.8491 14.9004 53.1507 14.4884 53.1158L7.4186 52.5155C7.00661 52.4805 6.68852 52.1215 6.7235 51.7095C6.75848 51.2975 7.13394 50.9809 7.54593 51.0158L8.25456 51.076C7.5139 50.4156 6.8286 49.4943 6.92514 48.3572L6.93214 48.2748Z" fill="white"/>
<path d="M12.1246 25.8351C12.4058 25.3103 13.0697 25.1218 13.5945 25.4029L22.298 30.0656C22.6625 30.2608 22.7978 30.7086 22.6026 31.0731C22.4073 31.4376 21.9518 31.5875 21.5873 31.3923L13.3066 26.9561L19.8269 34.7834C20.1055 35.139 20.1659 35.6217 19.9394 36.0445C19.7129 36.4673 19.2776 36.6844 18.8272 36.6495L8.69864 35.5576L16.9794 39.9938C17.3438 40.189 17.4714 40.6514 17.2761 41.0158C17.0809 41.3803 16.6331 41.5157 16.2687 41.3204L7.56514 36.6578C7.04031 36.3766 6.82944 35.7195 7.1106 35.1947L7.36833 34.7136C7.5792 34.32 8.02906 34.1106 8.45705 34.1523L18.4815 35.2635L12.0028 27.5335C11.731 27.2003 11.656 26.7098 11.8669 26.3162L12.1246 25.8351Z" fill="white"/>
<path d="M22.2333 19.2058C24.1153 17.4897 26.5542 17.6607 28.3149 19.5916C30.0756 21.5226 30.0215 23.9669 28.1394 25.6831C26.2452 27.4103 23.8185 27.2282 22.0578 25.2973C20.2971 23.3663 20.339 20.9331 22.2333 19.2058ZM27.2145 24.6687C28.1433 23.8218 28.6738 22.2189 27.1917 20.5935C25.7207 18.9803 24.087 19.3733 23.1582 20.2202C22.2172 21.0783 21.6878 22.6578 23.1587 24.271C24.6408 25.8964 26.2735 25.5268 27.2145 24.6687Z" fill="white"/>
<path d="M32.5847 11.9306C32.9422 11.7228 33.3801 11.8508 33.5879 12.2082C33.8041 12.58 33.6595 12.9893 33.2877 13.2055L33.2162 13.247C32.2726 13.7957 31.7998 14.7594 31.7316 15.7938L34.2589 20.1404C34.4667 20.4978 34.3327 20.9583 33.9753 21.1662C33.6178 21.374 33.1656 21.2543 32.9578 20.8969L29.3914 14.7631C29.1836 14.4057 29.2949 13.9391 29.6524 13.7313C30.0098 13.5235 30.4847 13.6491 30.6925 14.0066L31.05 14.6214C31.1656 13.6358 31.5267 12.5458 32.5133 11.9722L32.5847 11.9306Z" fill="white"/>
<path d="M44.4556 14.5906C44.7851 14.4809 45.1668 14.6326 45.2871 14.9935C45.3707 15.2446 45.2504 15.5113 45.0725 15.71C44.5128 16.3323 43.9217 16.8604 42.5565 17.3152C39.9988 18.1672 37.9855 17.1469 37.1073 14.5108C36.4017 12.3925 36.8676 9.97104 39.4723 9.10333C41.8888 8.29835 43.8289 9.72653 44.5241 11.8135C44.6548 12.2058 44.4769 12.6137 44.0375 12.76L38.7182 14.532C39.3455 15.892 40.5431 16.5041 42.2377 15.9396C43.1792 15.626 43.7128 15.239 44.194 14.7475C44.2725 14.6691 44.3457 14.6272 44.4556 14.5906ZM39.8748 10.3116C38.8706 10.6461 37.8819 11.7076 38.3314 13.3709L42.9603 11.8289C42.3225 10.2283 40.8791 9.97702 39.8748 10.3116Z" fill="white"/>
<path d="M48.8453 13.7692C49.353 13.6976 49.8201 14.0493 49.8917 14.557L49.9055 14.6553C49.9771 15.163 49.6253 15.6301 49.1176 15.7017L48.9539 15.7247C48.4462 15.7963 47.9791 15.4446 47.9075 14.9369L47.8937 14.8386C47.8221 14.3309 48.1738 13.8638 48.6815 13.7922L48.8453 13.7692Z" fill="white"/>
</svg>
