<svg width="70" height="70" viewBox="0 0 70 70" fill="none" xmlns="http://www.w3.org/2000/svg">
<circle cx="35" cy="35" r="35" fill="#73B0E6" fill-opacity="0.21"/>
<path d="M42.084 35.5205C42.431 36.1299 42.6891 36.7646 42.8584 37.4248C43.0277 38.085 43.1165 38.7663 43.125 39.4688V40.7764L35 44.8516L26.875 40.7764C26.875 40.2686 26.8792 39.7946 26.8877 39.3545C26.8962 38.9144 26.9342 38.487 27.002 38.0723C27.0697 37.6576 27.1712 37.2428 27.3066 36.8281C27.4421 36.4134 27.6452 35.9775 27.916 35.5205L25.25 34.1875V41.6396C25.4954 41.7243 25.7155 41.8428 25.9102 41.9951C26.1048 42.1475 26.2783 42.3252 26.4307 42.5283C26.583 42.7314 26.693 42.9515 26.7607 43.1885C26.8285 43.4255 26.8665 43.6751 26.875 43.9375V48H22V43.9375C22 43.6836 22.0381 43.4382 22.1143 43.2012C22.1904 42.9642 22.3005 42.7399 22.4443 42.5283C22.5882 42.3167 22.7575 42.139 22.9521 41.9951C23.1468 41.8512 23.3711 41.7327 23.625 41.6396V33.375L22 32.5625L35 26.0625L48 32.5625L42.084 35.5205ZM25.25 43.9375C25.25 43.7174 25.1696 43.527 25.0088 43.3662C24.848 43.2054 24.6576 43.125 24.4375 43.125C24.2174 43.125 24.027 43.2054 23.8662 43.3662C23.7054 43.527 23.625 43.7174 23.625 43.9375V46.375H25.25V43.9375ZM25.6309 32.5625L35 37.2471L44.3691 32.5625L35 27.8779L25.6309 32.5625ZM41.5 39.7734C41.5 39.1217 41.4365 38.5166 41.3096 37.958C41.1826 37.3994 40.9583 36.8281 40.6367 36.2441L35 39.0625L29.3633 36.2441C29.084 36.735 28.8724 37.2513 28.7285 37.793C28.5846 38.3346 28.5085 38.8932 28.5 39.4688V39.7734L35 43.0234L41.5 39.7734Z" fill="#0F75BC"/>
</svg>
